<?xml version="1.0" standalone="no"?>
<!DOCTYPE svg PUBLIC "-//W3C//DTD SVG 20010904//EN"
 "http://www.w3.org/TR/2001/REC-SVG-20010904/DTD/svg10.dtd">
<svg version="1.0" xmlns="http://www.w3.org/2000/svg"
 width="403.000000pt" height="531.000000pt" viewBox="0 0 403.000000 531.000000"
 preserveAspectRatio="xMidYMid meet">

<g transform="translate(0.000000,531.000000) scale(0.100000,-0.100000)"
fill="#e8ceb4" stroke="none">
<path d="M4011 5294 c0 -11 3 -14 6 -6 3 7 2 16 -1 19 -3 4 -6 -2 -5 -13z"/>
<path d="M1715 3920 c-110 -12 -235 -40 -290 -65 -98 -43 -114 -66 -176 -248
-8 -23 -25 -44 -45 -56 -28 -17 -31 -24 -37 -87 -16 -161 1 -190 24 -44 12 73
19 85 71 126 8 7 29 52 47 102 20 53 43 100 59 115 92 87 417 136 772 117 203
-11 343 -41 413 -87 34 -23 51 -46 89 -123 42 -86 60 -109 109 -144 12 -8 20
-40 28 -115 13 -117 7 -137 -50 -167 -44 -23 -46 -11 -5 31 32 31 36 41 35 83
-1 38 -2 42 -9 22 -7 -21 -8 -22 -9 -5 -2 17 -4 16 -17 -7 -8 -16 -19 -28 -24
-28 -6 0 -10 -11 -10 -24 0 -19 -8 -27 -37 -36 -46 -15 -71 -36 -31 -26 14 3
34 9 43 12 14 6 16 1 13 -22 -3 -25 -10 -31 -53 -46 -156 -51 -371 -72 -675
-65 -236 6 -418 24 -559 57 -108 26 -158 49 -198 90 -18 19 -33 31 -33 27 0
-19 25 -55 51 -72 16 -11 32 -27 35 -35 3 -8 7 -85 9 -171 1 -86 6 -165 9
-177 6 -18 3 -22 -15 -22 -22 0 -22 -1 -16 -111 9 -159 45 -502 68 -654 17
-115 22 -132 44 -148 23 -17 25 -25 24 -95 0 -51 -3 -70 -9 -57 -14 37 -37 46
-145 60 -152 20 -216 39 -332 95 -56 28 -112 50 -123 50 -30 0 -30 -48 1 -137
23 -68 24 -131 3 -161 -17 -25 -67 -48 -134 -63 -81 -17 -100 -29 -100 -60 0
-52 57 -83 290 -159 l145 -47 3 -54 c5 -91 42 -115 265 -173 269 -70 402 -87
732 -93 359 -6 578 11 830 68 212 47 306 121 289 227 l-6 37 149 43 c189 54
277 96 281 134 4 32 -3 36 -116 68 -45 13 -85 32 -107 52 -30 26 -35 36 -35
73 0 25 13 76 31 120 53 134 31 150 -113 82 -127 -62 -205 -85 -318 -98 -109
-12 -145 -23 -165 -53 -23 -32 -18 -93 10 -143 l26 -43 -31 0 -30 0 -1 148
c-1 169 -13 230 -23 112 -3 -41 -9 -120 -13 -174 -6 -71 -12 -101 -22 -104
-11 -4 -12 3 -8 29 4 19 9 84 12 144 7 109 7 110 -20 138 -28 29 -28 50 0 27
13 -10 15 -9 15 7 0 14 13 26 40 38 22 10 46 25 53 34 10 11 17 77 26 231 7
118 16 274 22 345 5 72 9 161 9 199 0 59 -2 67 -17 62 -15 -6 -16 9 -10 181 5
164 8 189 23 198 10 6 31 24 47 40 l29 30 -6 124 c-4 68 -10 129 -14 137 -4 7
-25 26 -47 42 -31 23 -47 47 -74 111 -56 134 -126 181 -319 217 -99 19 -529
28 -647 14z m1030 -600 c3 -5 1 -10 -4 -10 -6 0 -11 5 -11 10 0 6 2 10 4 10 3
0 8 -4 11 -10z m-1409 -151 c3 -5 -3 -6 -13 -3 -14 4 -12 0 6 -15 22 -20 23
-23 7 -39 -10 -12 -18 -46 -22 -95 -4 -43 -9 -75 -12 -72 -3 3 -6 58 -6 123
-1 109 0 118 17 114 9 -2 20 -8 23 -13z m1344 -138 c-12 -131 -11 -172 5 -212
5 -12 -2 -20 -25 -28 l-32 -11 6 48 c14 114 28 294 23 299 -3 3 -9 -22 -13
-56 -7 -65 -12 -75 -33 -62 -10 6 -8 16 8 42 26 42 26 57 4 82 -17 19 -17 19
5 13 16 -5 22 -3 22 8 0 12 28 27 39 20 2 -2 -2 -66 -9 -143z m-51 65 c-2 -3
-19 5 -38 16 -24 15 -29 23 -19 29 13 8 67 -35 57 -45z m-994 13 c114 -17 185
-21 385 -21 135 0 278 4 318 9 39 5 72 6 72 2 0 -17 -30 -28 -85 -32 l-60 -3
64 -2 63 -2 -7 -135 c-5 -97 -4 -135 4 -135 7 0 11 22 11 60 0 58 2 63 58 135
68 88 89 99 34 18 -21 -32 -45 -69 -52 -83 -24 -46 15 -4 57 61 21 32 44 59
51 59 9 0 2 -14 -16 -37 -46 -59 -112 -155 -112 -164 0 -5 7 -6 15 -3 8 4 15
2 15 -4 0 -5 -7 -15 -15 -22 -8 -7 -15 -19 -15 -27 0 -10 -6 -12 -20 -8 -14 4
-20 2 -20 -8 0 -11 12 -14 53 -12 28 1 60 6 70 10 10 4 21 5 24 1 8 -8 0 -16
-23 -21 -11 -2 -46 -11 -79 -19 -77 -19 -75 -20 -75 4 0 11 3 20 8 20 4 0 5
35 3 77 -5 94 -18 59 -20 -54 l-1 -71 -77 -9 c-112 -12 -425 -9 -513 5 -172
27 -281 54 -270 67 5 7 13 66 16 131 5 98 3 124 -10 149 -16 30 -16 30 -17 5
0 -23 -1 -23 -8 -5 -12 29 7 47 46 43 18 -2 33 -3 33 -1 0 6 -59 29 -80 32 -5
0 -10 6 -10 12 0 7 9 9 23 5 12 -3 85 -16 162 -27z m-274 -15 c-16 -21 -18
-30 -10 -46 8 -15 8 -19 0 -13 -14 8 -7 -27 19 -97 10 -27 15 -48 11 -48 -11
0 -51 133 -51 169 0 22 7 39 23 51 30 25 34 17 8 -16z m1198 22 c18 -22 -2
-26 -23 -5 -16 16 -17 19 -4 19 9 0 21 -6 27 -14z m-78 -18 c25 -31 24 -43 -3
-18 -12 11 -26 20 -30 20 -5 0 -6 5 -3 10 9 15 15 13 36 -12z m34 11 c11 -17
-1 -21 -15 -4 -8 9 -8 15 -2 15 6 0 14 -5 17 -11z m-1073 -21 c-7 -7 -12 -23
-12 -37 0 -19 -3 -22 -9 -12 -7 11 -10 9 -13 -9 l-3 -23 -14 26 c-13 24 -12
28 10 46 27 23 62 30 41 9z m1148 -8 c0 -5 -4 -10 -10 -10 -5 0 -10 5 -10 10
0 6 5 10 10 10 6 0 10 -4 10 -10z m-147 -44 c-37 -45 -52 -46 -16 -1 15 19 32
35 36 35 5 0 -4 -15 -20 -34z m11 -33 c-34 -45 -54 -63 -54 -48 0 10 74 94 82
95 5 0 -8 -21 -28 -47z m-965 -38 c0 -5 -4 -3 -9 5 -5 8 -9 22 -9 30 0 16 17
-16 18 -35z m1141 -47 c0 -18 -2 -20 -9 -8 -6 8 -7 18 -5 22 9 14 14 9 14 -14z
m-1297 -8 c3 -11 1 -18 -4 -14 -5 3 -9 12 -9 20 0 20 7 17 13 -6z m95 -15 c-3
-3 -9 2 -12 12 -6 14 -5 15 5 6 7 -7 10 -15 7 -18z m44 -9 c4 3 6 -4 5 -17 -1
-26 -21 -52 -31 -42 -11 11 -6 24 5 17 12 -7 10 10 -7 63 -3 12 -1 10 8 -5 8
-12 17 -20 20 -16z m1008 -16 c0 -5 -5 -10 -11 -10 -5 0 -7 5 -4 10 3 6 8 10
11 10 2 0 4 -4 4 -10z m142 -32 c-7 -7 -12 -8 -12 -2 0 6 3 14 7 17 3 4 9 5
12 2 2 -3 -1 -11 -7 -17z m-106 -25 c-10 -10 -19 5 -10 18 6 11 8 11 12 0 2
-7 1 -15 -2 -18z m-1096 -18 c-7 -8 -17 -15 -23 -15 -5 0 -2 9 8 20 21 23 35
19 15 -5z m1060 11 c0 -3 -4 -8 -10 -11 -5 -3 -10 -1 -10 4 0 6 5 11 10 11 6
0 10 -2 10 -4z m60 -6 c0 -5 -5 -10 -11 -10 -5 0 -7 5 -4 10 3 6 8 10 11 10 2
0 4 -4 4 -10z m48 -23 c-7 -7 -21 -16 -32 -20 -14 -6 -17 -4 -12 9 3 8 6 17 6
20 0 2 6 1 14 -2 7 -3 17 3 21 13 5 12 9 14 12 6 3 -7 -1 -19 -9 -26z m-1122
-5 c-17 -16 -18 -16 -5 5 7 12 15 20 18 17 3 -2 -3 -12 -13 -22z m1034 18 c0
-5 -5 -10 -11 -10 -5 0 -7 5 -4 10 3 6 8 10 11 10 2 0 4 -4 4 -10z m-1139 -44
c119 -39 346 -85 480 -97 250 -23 551 10 781 87 44 14 81 24 83 22 2 -2 -2
-87 -10 -188 -7 -102 -19 -266 -25 -365 -8 -125 -16 -184 -26 -194 -11 -12
-13 -1 -9 75 3 59 1 79 -4 59 -5 -16 -9 -25 -10 -20 -4 29 -21 -26 -20 -65 1
-37 2 -41 9 -20 7 23 8 22 9 -10 1 -35 1 -35 -90 -73 -289 -122 -648 -140
-1044 -52 -66 14 -128 28 -137 31 -23 7 -25 86 -3 104 8 7 16 9 16 4 1 -5 5
14 9 41 9 55 10 175 2 135 -5 -23 -6 -22 -18 15 -12 39 -13 39 -15 10 -1 -16
-8 53 -15 155 l-12 185 3 -210 c1 -115 1 -203 -1 -195 -1 8 -10 125 -19 260
-8 135 -17 264 -20 288 -3 23 -1 42 4 42 5 0 42 -11 82 -24z m-34 -673 c-2
-16 -4 -5 -4 22 0 28 2 40 4 28 2 -13 2 -35 0 -50z m-475 -157 c95 -52 228
-94 331 -106 50 -6 102 -13 114 -16 30 -6 53 -31 53 -59 0 -30 -35 -35 -151
-23 -58 6 -99 6 -126 -1 -40 -11 -40 -11 -61 -93 -25 -96 -38 -157 -47 -211
-7 -45 1 -45 -155 3 -132 41 -264 108 -268 137 -3 19 5 24 49 37 29 9 60 16
68 16 27 1 102 39 121 62 27 32 25 94 -5 180 -14 39 -25 80 -25 90 0 27 31 22
102 -16z m2438 18 c0 -9 -14 -57 -31 -107 -52 -151 -31 -190 124 -238 56 -17
106 -35 111 -40 27 -25 -97 -89 -264 -137 -171 -49 -156 -49 -174 6 -23 67
-46 180 -46 224 0 27 -7 42 -26 57 -23 18 -35 19 -165 14 -127 -6 -139 -5
-139 11 0 10 12 30 28 45 23 23 41 29 122 40 121 17 200 40 325 96 109 48 135
54 135 29z m-741 -43 c10 -7 7 -9 -12 -8 -14 1 -23 5 -20 10 6 9 15 9 32 -2z
m-1052 -26 c159 -40 269 -56 426 -62 99 -4 143 -9 132 -15 -9 -5 -33 -7 -53
-4 -20 4 -44 2 -52 -4 -11 -7 1 -10 43 -10 33 0 57 -4 57 -11 0 -5 5 -7 10 -4
6 3 10 0 11 -7 0 -10 2 -10 6 0 7 17 23 15 23 -2 0 -8 -10 -17 -22 -19 -13 -2
-5 -5 18 -6 32 -1 43 -6 52 -23 l11 -23 0 23 c1 34 31 28 31 -7 0 -17 5 -29
13 -28 52 2 76 -21 78 -76 1 -18 2 -17 9 7 12 39 21 207 10 181 -5 -11 -9 -37
-9 -57 -1 -21 -6 -38 -12 -38 -7 0 -9 19 -6 55 l5 55 -34 -5 c-28 -3 -34 -1
-34 14 0 15 13 21 61 30 72 15 81 8 68 -48 -5 -20 -9 -67 -10 -106 -2 -104 -9
-129 -39 -133 -57 -6 -570 -2 -630 5 l-65 8 -3 118 c-2 107 -1 117 15 117 12
0 7 7 -15 20 -18 11 -37 18 -43 15 -5 -4 -9 -1 -9 5 0 7 -7 10 -15 7 -8 -4
-17 -1 -21 5 -4 7 -9 6 -15 -3 -7 -12 -9 -12 -9 0 0 7 -6 11 -14 8 -10 -4 -13
-1 -10 7 3 9 -3 11 -24 8 -20 -3 -31 1 -35 12 -8 20 -16 21 100 -9z m1014 -2
c13 -15 12 -15 -8 -4 -24 12 -29 21 -14 21 5 0 15 -7 22 -17z m-35 -7 c9 -9
10 -17 4 -21 -5 -3 -10 -1 -10 4 0 6 -6 11 -14 11 -8 0 -18 5 -21 10 -10 15
25 12 41 -4z m114 4 c8 -5 11 -12 7 -16 -4 -4 -15 0 -24 9 -18 18 -8 23 17 7z
m-220 -25 c-7 -9 -15 -13 -19 -10 -3 3 1 10 9 15 21 14 24 12 10 -5z m-170
-34 c0 -16 -7 -18 -55 -16 -31 1 -58 5 -61 8 -7 7 65 19 75 12 6 -3 12 -1 16
5 10 16 25 11 25 -9z m325 9 c-3 -5 -10 -10 -16 -10 -5 0 -9 5 -9 10 0 6 7 10
16 10 8 0 12 -4 9 -10z m53 -2 c5 -7 9 -35 8 -63 -1 -27 -3 -78 -4 -112 -2
-49 -5 -63 -17 -63 -13 0 -19 11 -17 31 1 4 -8 5 -18 2 -27 -7 -25 7 5 39 30
32 30 32 8 54 -16 16 -16 16 7 9 20 -6 22 -5 13 5 -6 7 -9 19 -5 28 4 11 1 14
-9 10 -10 -4 -14 3 -15 26 -1 17 1 25 3 19 6 -18 33 -16 33 1 0 8 -6 17 -12
19 -8 4 -9 6 -2 6 6 1 16 -5 22 -11z m-1148 -12 c0 -3 -4 -8 -10 -11 -5 -3
-10 -1 -10 4 0 6 5 11 10 11 6 0 10 -2 10 -4z m765 -36 c3 -6 -1 -13 -10 -16
-19 -8 -30 0 -20 15 8 14 22 14 30 1z m35 0 c0 -5 -4 -10 -10 -10 -5 0 -10 5
-10 10 0 6 5 10 10 10 6 0 10 -4 10 -10z m30 0 c0 -5 -4 -10 -10 -10 -5 0 -10
5 -10 10 0 6 5 10 10 10 6 0 10 -4 10 -10z m-819 -33 c-11 -20 -9 -33 13 -87
31 -75 32 -88 6 -40 -19 33 -20 34 -14 6 5 -22 4 -28 -7 -24 -17 6 -26 148 -9
148 5 0 10 8 10 17 0 9 3 13 7 10 3 -4 1 -18 -6 -30z m703 18 c-4 -8 -10 -15
-15 -15 -5 0 -9 7 -9 15 0 8 7 15 15 15 9 0 12 -6 9 -15z m320 -10 c-4 -8 -10
-15 -15 -15 -5 0 -9 7 -9 15 0 8 7 15 15 15 9 0 12 -6 9 -15z m-242 -30 c-2
-14 -6 -25 -8 -25 -2 0 -4 11 -4 25 0 14 4 25 9 25 4 0 6 -11 3 -25z m30 0
c-2 -14 -6 -25 -8 -25 -2 0 -4 11 -4 25 0 14 4 25 9 25 4 0 6 -11 3 -25z
m-769 -22 c18 -38 18 -38 -1 -14 -15 18 -21 20 -24 10 -3 -8 -5 -2 -4 13 1 38
9 35 29 -9z m957 23 c0 -11 -19 -15 -25 -6 -3 5 1 10 9 10 9 0 16 -2 16 -4z
m60 -11 c-7 -9 -15 -13 -17 -11 -7 7 7 26 19 26 6 0 6 -6 -2 -15z m-1130 -49
c0 -50 -2 -54 -21 -49 -14 4 -18 10 -13 22 4 9 12 31 18 49 6 17 12 32 13 32
2 0 3 -24 3 -54z m990 19 c-7 -9 -15 -13 -18 -10 -3 2 1 11 8 20 7 9 15 13 18
10 3 -2 -1 -11 -8 -20z m50 14 c0 -6 -11 -25 -25 -44 -14 -18 -28 -43 -30 -56
-3 -19 10 -9 55 41 72 77 78 71 13 -11 -52 -66 -75 -72 -80 -21 -3 25 3 43 22
68 26 34 45 44 45 23z m110 -4 c-7 -9 -15 -13 -17 -11 -7 7 7 26 19 26 6 0 6
-6 -2 -15z m-947 -62 c3 -44 1 -53 -12 -53 -18 0 -41 18 -41 33 0 4 5 5 10 2
6 -3 10 3 10 14 0 22 23 79 26 65 1 -5 4 -33 7 -61z m-456 37 c86 -32 284 -79
430 -101 179 -26 566 -36 783 -20 263 20 409 47 544 101 109 44 112 43 119
-34 3 -35 24 -119 46 -186 38 -114 40 -124 26 -155 -18 -45 -95 -99 -175 -124
-271 -85 -874 -119 -1250 -72 -201 25 -384 62 -486 97 -174 60 -180 66 -171
187 5 71 36 254 53 310 7 22 17 21 81 -3z m1339 -55 c-33 -40 -56 -56 -56 -39
0 10 83 94 88 89 3 -2 -12 -25 -32 -50z m48 -20 c-6 -16 -24 -21 -24 -7 0 11
11 22 21 22 5 0 6 -7 3 -15z"/>
<path d="M1518 2971 c-5 -35 -8 -85 -7 -110 l1 -46 9 40 c6 22 8 72 7 110 l-3
70 -7 -64z"/>
<path d="M2353 2985 c0 -27 2 -38 4 -22 2 15 2 37 0 50 -2 12 -4 0 -4 -28z"/>
<path d="M2316 2832 c-5 -45 -13 -85 -19 -89 -7 -4 -8 15 -3 56 5 44 4 61 -3
56 -6 -3 -11 -21 -11 -39 0 -43 -11 -52 -27 -24 l-12 23 -1 -24 c0 -13 -3 -21
-7 -18 -3 4 -12 2 -19 -3 -6 -6 -16 -10 -20 -9 -5 1 -16 -1 -24 -4 -8 -3 -24
-8 -35 -10 -12 -3 -6 -6 15 -7 31 -2 28 -4 -25 -16 l-60 -13 95 4 c52 2 107 8
122 14 14 5 29 7 32 4 12 -12 17 26 14 103 l-3 79 -9 -83z m-41 -82 c3 -5 -1
-10 -10 -10 -9 0 -13 5 -10 10 3 6 8 10 10 10 2 0 7 -4 10 -10z"/>
<path d="M1336 2679 c-14 -14 -16 -25 -10 -51 7 -32 8 -32 15 -8 4 14 7 19 8
13 2 -19 51 6 51 26 0 9 -10 21 -23 27 -18 8 -26 6 -41 -7z"/>
<path d="M2623 2635 c0 -22 2 -30 4 -17 2 12 2 30 0 40 -3 9 -5 -1 -4 -23z"/>
<path d="M2648 2650 c-12 -38 -10 -66 3 -53 6 6 9 26 7 44 -3 32 -3 33 -10 9z"/>
<path d="M2593 2652 c-19 -12 -19 -34 0 -37 12 -2 17 3 17 21 0 27 0 27 -17
16z"/>
<path d="M2670 2590 c0 -35 2 -61 4 -59 8 7 10 108 3 115 -4 4 -7 -21 -7 -56z"/>
<path d="M2535 2629 c-4 -6 -5 -13 -2 -16 7 -7 27 6 27 18 0 12 -17 12 -25 -2z"/>
<path d="M1723 2563 c-7 -2 -13 -13 -13 -24 0 -10 -6 -19 -12 -19 -8 -1 -6 -6
5 -14 20 -15 22 -32 5 -39 -9 -4 -8 -6 3 -6 23 -1 66 -137 51 -162 -17 -26
-15 -31 7 -24 14 4 20 -1 25 -20 3 -13 19 -33 34 -42 15 -10 30 -22 34 -27 15
-23 21 7 9 47 -7 23 -14 52 -14 64 -1 11 -5 19 -8 17 -13 -7 -38 32 -45 71 -3
22 -17 60 -29 85 -12 25 -26 55 -29 68 -7 20 -4 22 36 22 63 0 98 -27 151
-115 50 -84 65 -149 53 -232 -6 -49 -17 -68 -49 -85 -17 -9 -19 -8 -13 7 5 13
2 16 -10 11 -10 -4 -22 0 -29 10 -11 15 -12 15 -18 -5 -4 -17 -1 -21 18 -21
13 0 27 -5 31 -11 20 -34 -89 -37 -151 -5 -47 25 -103 103 -130 183 -18 53
-21 93 -10 158 5 29 5 29 -6 5 -20 -48 -15 -124 15 -199 23 -57 42 -83 97
-136 71 -69 87 -75 149 -52 84 30 115 72 126 171 8 69 -11 133 -67 222 -56 88
-79 104 -148 103 -31 0 -62 -3 -68 -6z m102 -274 c11 -17 -1 -21 -15 -4 -8 9
-8 15 -2 15 6 0 14 -5 17 -11z"/>
<path d="M1344 2405 c0 -66 1 -92 3 -57 2 34 2 88 0 120 -2 31 -3 3 -3 -63z"/>
<path d="M2176 2408 c-71 -57 -82 -71 -122 -155 -47 -98 -60 -141 -17 -58 14
28 32 58 41 68 8 9 12 17 8 17 -17 0 28 60 71 96 26 21 56 47 65 56 24 24 67
33 89 19 24 -14 32 -14 23 1 -4 7 -3 8 4 4 7 -4 12 -14 12 -23 0 -9 3 -13 7
-9 4 3 13 -4 20 -16 7 -13 12 -18 13 -13 0 6 -9 25 -20 43 -18 29 -24 32 -68
32 -45 0 -55 -5 -126 -62z"/>
<path d="M2246 2368 c-21 -22 -49 -66 -63 -96 -14 -32 -44 -74 -69 -97 -25
-24 -44 -50 -44 -63 0 -11 -5 -33 -12 -47 -9 -21 -9 -29 4 -41 15 -15 17 -14
23 6 19 61 201 303 219 292 5 -3 6 1 1 8 -4 7 -2 16 6 22 11 7 11 11 2 15 -7
2 -13 13 -13 24 0 28 -10 23 -54 -23z"/>
<path d="M2386 2364 c-4 -10 -2 -21 5 -25 7 -4 9 -19 5 -40 -3 -19 -7 -39 -8
-46 -1 -7 -5 -10 -9 -8 -8 6 -22 -62 -15 -73 2 -4 -4 -8 -14 -9 -13 -1 -17 3
-13 15 4 14 3 15 -5 2 -8 -10 -8 -18 0 -27 6 -7 7 -13 2 -13 -5 0 -2 -5 6 -10
13 -8 11 -13 -11 -34 -15 -14 -30 -22 -33 -19 -3 4 -6 -2 -7 -13 0 -10 -3 -13
-6 -6 -8 19 -31 14 -45 -10 -7 -13 -11 -26 -11 -29 1 -4 -8 -15 -20 -25 -21
-19 -21 -19 -7 0 14 18 13 19 -10 13 -14 -4 -29 -7 -33 -7 -5 0 -6 -4 -2 -9 3
-5 1 -12 -4 -15 -5 -4 -12 -2 -16 4 -3 5 -14 10 -24 10 -31 0 -83 31 -77 46 3
8 1 14 -4 14 -15 0 -11 -23 8 -46 26 -30 68 -54 98 -54 40 0 149 56 180 93 40
48 97 172 101 225 5 54 -19 128 -31 96z"/>
<path d="M1390 2143 c0 -17 -3 -46 -7 -64 -6 -30 -5 -33 10 -21 14 12 16 9 20
-20 3 -18 3 0 1 41 -1 40 -7 78 -13 84 -8 8 -11 2 -11 -20z"/>
<path d="M2305 2139 c-4 -6 -5 -12 -2 -15 2 -3 7 2 10 11 7 17 1 20 -8 4z"/>
<path d="M2000 2110 c0 -19 3 -21 12 -12 9 9 9 15 0 24 -9 9 -12 7 -12 -12z"/>
<path d="M2315 2110 c-3 -5 -2 -10 4 -10 5 0 13 5 16 10 3 6 2 10 -4 10 -5 0
-13 -4 -16 -10z"/>
<path d="M1448 2065 c-3 -24 0 -50 8 -65 13 -24 13 -23 13 20 0 25 -4 54 -8
65 -7 16 -9 12 -13 -20z"/>
<path d="M2573 2080 c-6 -23 -19 -26 -26 -7 -3 6 -6 -7 -6 -30 -1 -24 2 -43 5
-43 14 0 32 29 38 63 7 38 -2 52 -11 17z"/>
<path d="M2510 2055 c0 -8 -6 -14 -12 -12 -8 1 -14 -11 -15 -33 0 -21 1 -25 4
-12 4 22 5 23 18 5 13 -16 14 -14 15 25 0 23 -2 42 -5 42 -3 0 -5 -7 -5 -15z"/>
<path d="M1491 2010 c0 -40 2 -42 11 -22 8 16 8 28 0 45 -9 19 -11 17 -11 -23z"/>
<path d="M2433 2010 c-41 -19 -42 -31 -3 -28 19 1 32 9 36 21 8 25 5 25 -33 7z"/>
<path d="M1520 1988 c0 -31 4 -38 20 -38 11 0 20 6 20 13 0 8 4 7 10 -3 7 -12
10 -8 10 15 0 23 -3 27 -10 15 -8 -13 -10 -12 -10 3 0 11 -5 15 -11 11 -6 -3
-15 0 -20 7 -6 10 -9 2 -9 -23z"/>
<path d="M1591 1969 c-1 -16 4 -26 14 -26 8 0 15 9 15 19 0 11 -4 17 -9 14 -5
-4 -12 0 -14 6 -3 7 -6 1 -6 -13z"/>
<path d="M1700 1783 c0 -11 56 -23 105 -23 23 1 26 3 14 10 -24 14 -119 24
-119 13z"/>
<path d="M1226 1487 c-11 -8 -28 -50 -42 -102 -20 -74 -21 -93 -11 -113 17
-36 61 -48 92 -28 33 21 48 76 27 94 -25 19 -39 14 -51 -18 -11 -32 -26 -43
-17 -12 3 9 12 43 21 75 9 31 20 57 25 57 6 0 5 -11 0 -25 -8 -20 -6 -27 5
-30 8 -3 21 -7 29 -9 15 -5 26 22 26 66 0 47 -64 75 -104 45z"/>
<path d="M2740 1493 c-36 -14 -39 -23 -24 -76 55 -188 54 -187 75 -187 26 0
33 20 21 63 -9 32 -7 37 19 56 30 23 36 50 20 94 -19 50 -61 68 -111 50z m54
-69 c8 -22 7 -34 -3 -34 -5 0 -11 11 -13 25 -6 28 6 34 16 9z"/>
<path d="M1376 1438 c-23 -37 -49 -184 -36 -207 24 -47 88 -51 111 -8 15 28
38 131 39 174 0 58 -84 88 -114 41z m44 -119 c-7 -33 -17 -62 -23 -66 -6 -4
-8 3 -4 18 3 13 12 49 18 79 7 30 14 49 17 42 2 -8 -1 -41 -8 -73z"/>
<path d="M2576 1444 c-28 -16 -28 -18 -23 -74 4 -32 14 -82 24 -111 21 -64 56
-84 101 -58 35 19 39 59 16 152 -25 102 -55 125 -118 91z m63 -112 c13 -64 14
-89 2 -76 -7 8 -31 112 -31 138 0 26 19 -14 29 -62z"/>
<path d="M1540 1429 c-1 -2 -9 -58 -19 -124 -11 -66 -17 -123 -14 -127 2 -5
15 -8 28 -8 25 0 29 7 40 73 5 31 10 37 30 37 20 0 25 5 25 24 0 15 -7 26 -20
29 -11 3 -20 12 -20 21 0 12 6 15 25 10 20 -5 25 -2 31 20 3 15 5 29 3 31 -6
5 -109 18 -109 14z"/>
<path d="M2448 1424 c-3 -3 -2 -22 3 -42 5 -22 4 -41 -1 -46 -7 -7 -10 -1 -10
15 0 48 -11 69 -36 69 -12 0 -25 -4 -28 -9 -6 -10 28 -248 36 -257 3 -3 17 -2
32 2 20 5 25 11 21 28 -13 64 -15 96 -7 96 6 0 14 -26 18 -57 8 -54 11 -58 34
-55 14 2 27 6 29 7 3 4 -23 178 -34 233 -4 15 -13 22 -29 22 -12 0 -25 -2 -28
-6z"/>
<path d="M1677 1373 c-4 -21 -9 -80 -13 -130 l-7 -93 31 0 c30 0 31 1 34 52 3
46 6 53 28 58 34 8 40 47 8 52 -30 4 -31 33 0 32 16 0 24 6 29 24 7 31 -9 42
-63 42 -40 0 -42 -1 -47 -37z"/>
<path d="M2230 1390 c-35 -35 -23 -79 36 -136 34 -31 44 -54 24 -54 -5 0 -10
9 -10 20 0 16 -7 20 -31 20 -31 0 -31 -1 -26 -37 7 -42 29 -63 65 -63 47 0 62
17 62 71 0 46 -3 53 -42 89 -23 21 -39 42 -35 46 4 4 7 2 7 -4 0 -7 14 -12 30
-12 23 0 30 4 30 20 0 28 -35 60 -65 60 -14 0 -34 -9 -45 -20z"/>
<path d="M1816 1274 c-4 -69 -5 -128 -3 -130 2 -3 27 -7 54 -11 48 -5 50 -5
55 22 4 17 1 28 -8 31 -8 2 -20 6 -28 8 -20 7 -8 46 14 46 17 0 34 36 24 52
-3 4 -14 8 -25 8 -12 0 -19 7 -19 20 0 15 7 20 25 20 21 0 25 5 25 30 0 30 -1
30 -54 30 l-53 0 -7 -126z"/>
<path d="M1977 1394 c-4 -4 -7 -65 -7 -136 l0 -128 55 0 c54 0 55 0 55 30 0
25 -4 30 -25 30 -34 0 -37 47 -2 52 14 2 23 11 25 26 3 18 -1 22 -22 22 -21 0
-26 5 -26 25 0 20 5 25 26 25 22 0 25 4 22 28 -3 24 -7 27 -48 30 -25 2 -49 0
-53 -4z"/>
<path d="M1717 3829 c8 -8 22 -8 50 -1 l38 10 -49 1 c-37 1 -47 -2 -39 -10z"/>
<path d="M2364 3822 c3 -6 32 -16 63 -23 32 -6 64 -13 73 -16 8 -2 -1 5 -20
15 -41 23 -126 40 -116 24z"/>
<path d="M1767 3801 c-54 -8 -88 -37 -131 -112 l-26 -47 22 -6 c13 -3 41 -5
63 -5 38 1 39 2 10 9 -16 3 139 9 345 11 350 4 378 5 415 24 33 17 40 25 40
49 0 52 -43 67 -208 77 -166 9 -461 9 -530 0z m257 -83 c11 -23 21 -37 24 -30
2 7 8 10 13 6 15 -9 10 -20 -9 -21 -12 -1 -25 11 -35 33 -9 19 -21 34 -27 34
-6 0 -4 -12 5 -30 8 -16 15 -32 15 -36 0 -8 -340 2 -348 11 -4 3 2 20 11 38
l18 32 157 3 157 3 19 -43z m10 26 c3 -8 2 -12 -4 -9 -6 3 -10 10 -10 16 0 14
7 11 14 -7z m29 -4 c3 -11 3 -20 1 -20 -2 0 -8 9 -14 20 -6 11 -7 20 -2 20 6
0 12 -9 15 -20z m77 2 c0 -10 7 -27 15 -38 17 -22 19 -34 6 -34 -5 0 -19 17
-31 38 -14 22 -25 32 -27 24 -3 -7 2 -21 11 -31 21 -23 20 -31 -4 -31 -10 0
-25 10 -31 23 -11 20 -11 21 4 8 21 -17 21 -9 2 29 l-16 30 36 0 c27 0 35 -4
35 -18z m350 -24 c0 -4 -7 -8 -15 -8 -8 0 -15 4 -15 8 0 5 7 9 15 9 8 0 15 -4
15 -9z m-241 -26 c11 2 20 -1 21 -7 0 -5 -18 -10 -40 -12 -32 -2 -42 2 -51 20
-12 21 -11 21 6 7 17 -14 18 -13 11 4 -7 19 -6 19 13 2 10 -10 28 -16 40 -14z"/>
<path d="M1430 3783 c-21 -8 -60 -44 -60 -56 0 -6 10 -1 23 10 12 12 38 28 57
36 23 10 28 15 15 15 -11 0 -27 -2 -35 -5z"/>
<path d="M1512 3764 c-40 -28 -21 -101 24 -92 10 2 33 27 51 56 l34 52 -43 0
c-24 0 -54 -7 -66 -16z m48 -28 c0 -3 -5 -17 -10 -32 -10 -25 -12 -26 -27 -12
-20 20 -10 48 17 48 11 0 20 -2 20 -4z"/>
<path d="M1455 3688 c4 -13 12 -27 18 -33 7 -7 8 -4 3 8 -3 10 -6 25 -6 33 0
8 -5 14 -11 14 -6 0 -8 -9 -4 -22z"/>
<path d="M2491 3635 c-29 -8 -101 -19 -160 -25 -124 -14 -182 -32 -74 -23 69
6 71 5 76 -18 4 -23 4 -23 6 -1 2 34 19 26 24 -10 4 -32 4 -32 5 5 1 24 7 37
16 37 7 0 27 3 44 6 27 6 30 4 29 -20 -2 -29 -17 -36 -17 -8 -1 11 -6 6 -15
-13 -12 -27 -13 -28 -14 -7 -1 31 -21 17 -21 -15 0 -18 4 -24 15 -20 17 7 30
-9 15 -18 -6 -4 -79 -15 -163 -26 l-152 -19 110 6 c61 3 129 9 152 13 41 8 44
7 57 -20 8 -16 11 -31 7 -33 -19 -12 -231 -27 -483 -33 l-283 -6 16 24 c13 19
28 25 75 30 54 5 52 6 -31 7 -124 3 -256 20 -322 43 -31 10 -59 16 -64 14 -4
-3 -17 0 -27 6 -14 9 -24 9 -38 1 -11 -7 -13 -12 -6 -12 7 0 10 -4 7 -10 -8
-13 16 -13 51 0 41 16 42 2 1 -15 -37 -15 -53 -45 -44 -82 2 -11 7 -1 12 25 4
23 12 42 17 42 6 0 8 -12 4 -27 -12 -48 -17 -132 -7 -103 8 22 9 22 11 5 1
-11 6 -2 12 20 5 22 7 52 4 67 -3 15 -2 27 2 26 4 -1 20 4 35 10 16 7 38 12
50 12 20 0 19 -2 -7 -20 l-30 -19 30 -11 c16 -6 36 -13 44 -16 126 -46 739
-38 993 13 l39 8 -23 29 c-22 28 -22 28 -1 17 29 -16 41 -13 18 4 -18 14 -18
15 8 25 40 15 52 13 99 -17 29 -18 37 -21 27 -8 -14 17 -13 17 10 11 24 -7 24
-7 5 8 -11 8 -25 20 -31 25 -6 5 -30 7 -53 4 -36 -5 -41 -3 -41 14 0 12 8 19
21 20 12 1 22 3 23 5 0 2 15 19 31 38 17 19 23 29 14 22 -9 -7 -30 -10 -47 -8
-27 3 -32 0 -33 -18 0 -21 -1 -21 -9 -1 l-9 20 0 -20 c-1 -16 -3 -17 -10 -6
-7 11 -10 9 -14 -10 -3 -19 -5 -18 -6 9 -1 25 3 32 18 32 10 0 34 7 52 15 41
17 23 17 -50 0z m-11 -110 c0 -8 -9 -15 -20 -15 -20 0 -26 11 -13 23 12 13 33
7 33 -8z m17 -7 c-3 -8 -6 -5 -6 6 -1 11 2 17 5 13 3 -3 4 -12 1 -19z m-1027
-66 c0 -11 -37 -32 -44 -25 -3 3 2 12 12 19 19 15 32 18 32 6z m78 -8 c28 -6
30 -9 21 -26 -9 -17 -17 -19 -52 -14 -54 9 -62 15 -40 32 21 15 29 16 71 8z
m917 -4 c3 -5 1 -10 -4 -10 -6 0 -11 5 -11 10 0 6 2 10 4 10 3 0 8 -4 11 -10z
m-865 -20 c-6 -11 -13 -20 -16 -20 -2 0 0 9 6 20 6 11 13 20 16 20 2 0 0 -9
-6 -20z m30 -10 c-6 -12 -14 -19 -17 -17 -2 3 1 15 7 27 6 12 14 19 17 17 2
-3 -1 -15 -7 -27z m30 -1 c-7 -11 -14 -19 -16 -16 -7 7 7 37 17 37 6 0 5 -9
-1 -21z"/>
<path d="M1335 3611 c-3 -17 -2 -38 4 -48 10 -17 10 -17 11 2 0 17 3 16 18 -7
21 -34 28 -35 36 -3 10 38 26 30 27 -12 l1 -38 9 33 c12 41 28 33 31 -16 l1
-37 4 33 c2 17 8 32 14 32 5 0 9 -15 10 -32 l1 -33 10 34 c11 39 3 75 -12 51
-7 -12 -10 -12 -16 3 -9 24 -5 26 41 18 32 -5 40 -11 41 -29 2 -33 14 -40 14
-8 l0 28 88 -7 c48 -4 91 -10 95 -12 5 -3 6 -25 2 -48 -3 -26 -2 -46 5 -50 6
-4 10 12 10 44 0 35 5 53 16 59 11 6 -8 11 -61 15 -42 4 -123 14 -179 22 -56
8 -120 17 -141 19 -22 2 -47 7 -57 11 -12 5 -18 -1 -23 -24z m30 -1 c3 -5 1
-10 -4 -10 -6 0 -11 5 -11 10 0 6 2 10 4 10 3 0 8 -4 11 -10z m65 0 c13 -8 13
-10 -2 -10 -9 0 -20 5 -23 10 -8 13 5 13 25 0z m40 -15 c0 -8 -4 -15 -10 -15
-5 0 -10 7 -10 15 0 8 5 15 10 15 6 0 10 -7 10 -15z"/>
<path d="M2148 3583 c6 -2 18 -2 25 0 6 3 1 5 -13 5 -14 0 -19 -2 -12 -5z"/>
<path d="M1530 3524 c0 -21 4 -33 10 -29 6 3 10 19 10 36 0 16 -4 29 -10 29
-5 0 -10 -16 -10 -36z"/>
<path d="M1800 3498 c0 -31 3 -39 10 -28 13 20 13 57 0 65 -6 4 -10 -11 -10
-37z"/>
<path d="M2629 3520 c13 -11 31 -20 40 -20 10 0 6 7 -14 20 -39 26 -57 25 -26
0z"/>
<path d="M1237 3493 c-11 -20 -19 -75 -9 -69 12 7 27 65 19 72 -3 3 -7 2 -10
-3z"/>
<path d="M2390 3461 c0 -5 5 -13 10 -16 6 -3 10 -2 10 4 0 5 -4 13 -10 16 -5
3 -10 2 -10 -4z"/>
<path d="M2042 3435 c0 -16 2 -22 5 -12 2 9 2 23 0 30 -3 6 -5 -1 -5 -18z"/>
<path d="M1252 3437 c-12 -13 -33 -99 -27 -105 6 -6 24 34 34 77 10 45 9 48
-7 28z"/>
<path d="M2070 3429 c0 -11 4 -18 10 -14 5 3 7 12 3 20 -7 21 -13 19 -13 -6z"/>
<path d="M2600 3400 c0 -16 2 -30 4 -30 2 0 6 14 8 30 3 17 1 30 -4 30 -4 0
-8 -13 -8 -30z"/>
<path d="M2577 3397 c-12 -31 -19 -127 -10 -127 6 0 13 30 17 66 7 65 4 89 -7
61z"/>
<path d="M2536 3352 c-4 -29 -6 -56 -3 -59 9 -9 19 41 15 78 -3 30 -4 28 -12
-19z"/>
<path d="M1600 3335 c1 -26 2 -28 11 -12 8 14 8 22 0 30 -8 8 -11 3 -11 -18z"/>
<path d="M1573 3295 c0 -33 2 -45 4 -27 2 18 2 45 0 60 -2 15 -4 0 -4 -33z"/>
<path d="M2638 3245 c-7 -7 -266 -53 -363 -64 l-70 -8 55 -2 c88 -2 383 50
396 70 6 10 -9 13 -18 4z"/>
<path d="M1410 3204 c48 -15 97 -24 135 -23 l60 1 -80 13 c-44 7 -100 18 -125
24 -75 18 -70 11 10 -15z"/>
<path d="M215 988 c-73 -152 -74 -153 -52 -165 12 -7 25 -12 29 -13 4 0 28 39
52 88 25 48 45 85 45 82 1 -3 -10 -46 -24 -95 l-25 -90 23 -17 c12 -10 24 -18
27 -17 3 0 29 36 59 79 30 44 56 78 58 76 2 -2 -14 -41 -37 -86 -23 -45 -40
-83 -38 -85 29 -24 68 -27 68 -4 0 5 29 68 65 141 36 72 64 137 61 144 -4 12
-67 44 -85 44 -3 0 -23 -27 -44 -59 -61 -94 -70 -93 -37 3 l29 86 -27 14 c-72
36 -65 42 -147 -126z"/>
<path d="M3693 1120 l-42 -19 25 -81 c14 -45 24 -84 21 -86 -2 -2 -24 27 -48
66 -24 38 -47 70 -52 70 -14 0 -87 -40 -87 -48 -1 -18 145 -302 155 -302 6 0
19 6 28 13 15 11 13 20 -23 96 -22 46 -39 86 -37 88 2 2 17 -16 32 -39 15 -24
41 -60 57 -80 26 -34 31 -36 53 -26 30 14 30 18 4 103 -29 94 -19 101 20 14
19 -41 35 -76 37 -78 2 -2 17 2 33 8 l29 13 -72 151 c-40 83 -77 152 -82 153
-5 1 -28 -6 -51 -16z"/>
<path d="M3382 979 c-46 -18 -52 -23 -46 -42 12 -40 104 -272 113 -286 7 -11
20 -9 70 9 62 23 70 34 51 70 -9 16 -15 18 -36 10 -37 -15 -41 -13 -53 21 -12
34 -7 49 15 49 20 0 28 24 15 49 -10 17 -15 19 -38 10 -29 -11 -37 -6 -48 28
-5 19 -1 25 22 35 15 7 29 13 31 14 1 1 -2 13 -7 28 -12 31 -20 31 -89 5z"/>
<path d="M532 845 c-39 -80 -72 -149 -72 -154 0 -5 12 -12 27 -16 21 -5 31 -1
43 15 22 30 51 17 44 -19 -5 -22 -1 -29 20 -39 24 -11 27 -10 36 13 10 27 90
300 90 308 0 6 -88 37 -104 37 -6 0 -44 -65 -84 -145z m82 -24 c-10 -36 -23
-61 -31 -61 -7 0 -13 2 -13 4 0 11 53 126 57 123 2 -3 -4 -32 -13 -66z"/>
<path d="M3205 916 c-33 -13 -60 -28 -59 -34 1 -7 2 -21 3 -33 1 -17 6 -20 25
-15 24 6 26 1 67 -125 l42 -131 30 6 c17 3 33 8 35 11 3 2 -16 63 -40 136 -42
122 -44 132 -27 136 22 6 23 13 7 48 -13 30 -8 30 -83 1z"/>
<path d="M743 763 c-45 -141 -49 -159 -35 -170 31 -26 48 -15 66 42 9 30 19
55 22 55 2 0 2 -29 -2 -64 l-7 -64 32 -7 c18 -4 34 -5 35 -3 2 1 25 74 53 161
l51 158 -25 10 c-38 14 -40 13 -61 -53 l-20 -63 6 68 c5 73 -1 87 -44 87 -18
0 -27 -21 -71 -157z"/>
<path d="M2993 850 c-72 -29 -51 -130 37 -175 49 -25 70 -49 70 -79 0 -27 -20
-18 -31 14 -12 33 -16 34 -53 20 -23 -9 -24 -12 -14 -42 19 -58 37 -71 92 -65
57 5 76 24 76 74 0 52 -26 90 -85 128 -61 39 -72 52 -57 67 7 7 14 4 21 -10
10 -18 15 -20 41 -10 35 12 34 10 15 47 -21 41 -61 52 -112 31z"/>
<path d="M1035 839 c-3 -8 -29 -79 -59 -159 -30 -80 -51 -148 -47 -152 3 -4
18 -10 33 -13 23 -6 28 -3 34 20 9 37 38 29 42 -12 2 -25 9 -32 30 -36 15 -3
28 -4 30 -3 4 5 52 300 52 322 0 16 -8 23 -32 27 -18 4 -43 9 -55 13 -15 4
-25 2 -28 -7z m29 -157 c-7 -53 -19 -81 -30 -69 -4 4 1 34 11 67 10 33 20 58
22 56 2 -2 1 -26 -3 -54z"/>
<path d="M2835 808 c-2 -7 -6 -33 -7 -58 l-3 -45 -16 45 c-16 46 -39 60 -68
41 -12 -8 -6 -27 33 -111 26 -56 53 -128 60 -159 12 -53 14 -56 42 -53 16 2
31 5 33 8 2 2 -1 27 -7 55 -7 28 -12 104 -12 170 l0 119 -25 0 c-14 0 -28 -6
-30 -12z"/>
<path d="M1263 785 c-36 -15 -39 -22 -64 -144 -23 -113 -24 -140 -3 -169 13
-19 24 -23 61 -21 30 2 47 -1 53 -11 14 -23 25 -2 39 75 7 39 15 80 18 92 4
18 -1 23 -33 32 -48 13 -56 3 -49 -59 6 -49 -7 -82 -25 -64 -11 11 15 180 32
201 15 19 30 4 24 -22 -5 -18 -1 -24 17 -29 38 -10 44 -7 50 21 4 23 -15 93
-25 93 -2 0 -17 4 -34 9 -21 6 -40 4 -61 -4z"/>
<path d="M2556 749 c-20 -16 -26 -29 -26 -61 0 -38 6 -47 66 -104 62 -60 74
-82 46 -92 -7 -2 -15 10 -19 28 -5 29 -8 31 -36 26 -41 -8 -42 -10 -28 -56 13
-43 43 -70 78 -70 61 0 101 50 88 112 -10 47 -29 73 -80 108 -25 17 -45 37
-45 45 0 19 17 19 27 1 10 -18 63 -9 63 11 0 18 -20 56 -34 65 -21 15 -74 8
-100 -13z"/>
<path d="M1432 595 c-13 -92 -21 -169 -18 -173 7 -7 128 -24 133 -18 2 2 5 16
6 32 2 23 -3 29 -31 37 -29 9 -33 14 -30 41 3 28 7 31 41 34 34 3 37 6 37 33
0 25 -5 30 -30 36 -25 4 -30 10 -30 34 0 27 3 29 40 29 38 0 40 2 40 29 0 37
-2 38 -76 46 l-60 7 -22 -167z"/>
<path d="M1646 731 c-2 -3 -7 -55 -10 -116 -4 -60 -9 -136 -12 -167 l-6 -58
36 0 36 0 1 58 c0 31 4 75 8 97 7 37 8 34 15 -40 11 -121 12 -125 45 -125 28
0 30 3 45 73 25 110 36 116 29 15 l-6 -88 31 0 c38 0 39 5 48 198 l7 142 -55
0 -55 0 -13 -72 c-20 -116 -26 -119 -33 -19 -3 51 -7 94 -9 96 -7 6 -99 12
-102 6z"/>
<path d="M2196 722 l-28 -4 6 -121 c4 -67 9 -144 12 -170 6 -47 7 -48 37 -45
l31 3 -2 60 c-2 43 0 56 8 45 5 -8 10 -21 10 -28 0 -7 6 -28 14 -46 12 -29 17
-32 46 -28 30 4 31 6 26 41 -3 20 -8 96 -12 169 l-6 132 -34 0 -34 0 -1 -52
-1 -53 -14 44 c-17 54 -21 58 -58 53z"/>
<path d="M1972 548 l3 -173 70 0 70 0 0 30 c0 27 -4 31 -35 35 -32 5 -35 8
-35 40 0 32 3 35 33 38 31 3 33 6 30 35 -3 28 -7 32 -33 32 -26 0 -30 4 -33
32 -3 29 -1 32 30 35 29 3 33 7 36 36 l3 32 -71 0 -70 0 2 -172z"/>
</g>
</svg>
